<?xml version="1.0" encoding="UTF-8"?><svg id="Capa_1" xmlns="http://www.w3.org/2000/svg" viewBox="0 0 1040.63 287.46"><defs><style>.cls-1{fill:#80c8f8;}</style></defs><path d="M250.75,112.4l28.81,43.6v-44c0-2.86.61-5,1.84-6.43,1.23-1.43,2.88-2.14,4.97-2.14s3.85.72,5.1,2.14c1.24,1.43,1.87,3.58,1.87,6.43v58.18c0,6.49-2.69,9.74-8.07,9.74-1.35,0-2.56-.19-3.63-.58-1.08-.39-2.09-1-3.03-1.84-.94-.84-1.82-1.83-2.62-2.95-.81-1.13-1.61-2.28-2.42-3.46l-28.1-43.09v43.34c0,2.83-.66,4.96-1.97,6.41s-2.99,2.17-5.04,2.17-3.82-.73-5.1-2.2c-1.28-1.46-1.92-3.59-1.92-6.38v-57.07c0-2.42.27-4.32.81-5.7.64-1.51,1.7-2.75,3.18-3.71,1.48-.96,3.08-1.44,4.79-1.44,1.34,0,2.5.22,3.46.66.96.44,1.8,1.03,2.52,1.77s1.46,1.7,2.22,2.88c.76,1.18,1.54,2.41,2.35,3.68Z"/><path d="M347.23,155.29h-26.94c.03,3.13.66,5.89,1.89,8.28,1.23,2.39,2.86,4.19,4.89,5.4s4.28,1.82,6.74,1.82c1.65,0,3.15-.19,4.52-.58,1.36-.39,2.68-.99,3.96-1.82,1.28-.82,2.46-1.71,3.53-2.65,1.08-.94,2.47-2.22,4.19-3.83.71-.61,1.72-.91,3.03-.91,1.41,0,2.56.39,3.43,1.16.88.77,1.31,1.87,1.31,3.28,0,1.25-.49,2.7-1.46,4.36s-2.45,3.26-4.42,4.79-4.44,2.8-7.42,3.81c-2.98,1.01-6.4,1.51-10.27,1.51-8.85,0-15.73-2.52-20.64-7.57-4.91-5.04-7.37-11.89-7.37-20.54,0-4.07.61-7.85,1.82-11.33,1.21-3.48,2.98-6.47,5.3-8.96,2.32-2.49,5.18-4.4,8.58-5.73,3.4-1.33,7.17-1.99,11.3-1.99,5.38,0,10,1.13,13.85,3.41,3.85,2.27,6.74,5.21,8.65,8.8,1.92,3.6,2.88,7.27,2.88,11,0,3.46-.99,5.71-2.98,6.74-1.99,1.03-4.78,1.54-8.38,1.54ZM320.28,147.47h24.98c-.34-4.71-1.61-8.23-3.81-10.57-2.2-2.34-5.11-3.51-8.7-3.51s-6.25,1.19-8.45,3.56c-2.2,2.37-3.54,5.88-4.01,10.52Z"/><path d="M405.96,172.14v-1.77c-1.65,2.09-3.38,3.83-5.2,5.25s-3.8,2.46-5.95,3.15c-2.15.69-4.61,1.03-7.37,1.03-3.33,0-6.32-.69-8.96-2.07-2.64-1.38-4.68-3.28-6.13-5.7-1.72-2.93-2.57-7.13-2.57-12.61v-27.3c0-2.76.62-4.82,1.87-6.18,1.24-1.36,2.89-2.04,4.94-2.04s3.77.69,5.05,2.07c1.28,1.38,1.92,3.43,1.92,6.16v22.05c0,3.2.27,5.88.81,8.05s1.5,3.87,2.9,5.1c1.4,1.23,3.29,1.84,5.68,1.84s4.51-.69,6.56-2.07c2.05-1.38,3.55-3.18,4.49-5.4.77-1.95,1.16-6.22,1.16-12.82v-16.75c0-2.72.64-4.78,1.92-6.16,1.28-1.38,2.94-2.07,5-2.07s3.7.68,4.95,2.04c1.24,1.36,1.87,3.42,1.87,6.18v39.91c0,2.62-.6,4.59-1.79,5.9-1.2,1.31-2.73,1.97-4.62,1.97s-3.44-.68-4.67-2.04-1.84-3.27-1.84-5.73Z"/><path d="M446.28,160.03v11.5c0,2.79-.66,4.89-1.97,6.28-1.31,1.4-2.98,2.09-5,2.09s-3.62-.71-4.89-2.12c-1.28-1.41-1.92-3.5-1.92-6.26v-38.35c0-6.19,2.24-9.28,6.71-9.28,2.29,0,3.94.72,4.94,2.17,1.01,1.45,1.56,3.58,1.67,6.41,1.65-2.83,3.34-4.96,5.07-6.41s4.04-2.17,6.94-2.17,5.7.72,8.43,2.17c2.73,1.45,4.09,3.36,4.09,5.75,0,1.68-.58,3.07-1.74,4.16-1.16,1.09-2.41,1.64-3.76,1.64-.5,0-1.72-.31-3.66-.93-1.93-.62-3.64-.93-5.12-.93-2.02,0-3.67.53-4.94,1.59-1.28,1.06-2.27,2.63-2.98,4.72-.71,2.09-1.19,4.57-1.46,7.44-.27,2.88-.4,6.38-.4,10.52Z"/><path d="M525.5,151.91c0,4.1-.64,7.89-1.92,11.35-1.28,3.46-3.13,6.44-5.55,8.93-2.42,2.49-5.32,4.4-8.68,5.73-3.36,1.33-7.15,1.99-11.35,1.99s-7.92-.67-11.25-2.02-6.21-3.27-8.65-5.78c-2.44-2.51-4.29-5.47-5.55-8.88-1.26-3.41-1.89-7.19-1.89-11.33s.64-7.99,1.92-11.45,3.11-6.42,5.5-8.88c2.39-2.46,5.28-4.35,8.68-5.68,3.4-1.33,7.15-1.99,11.25-1.99s7.96.67,11.35,2.02c3.4,1.35,6.31,3.26,8.73,5.75,2.42,2.49,4.26,5.45,5.52,8.88,1.26,3.43,1.89,7.22,1.89,11.35ZM511.67,151.91c0-5.62-1.24-9.99-3.71-13.12-2.47-3.13-5.79-4.69-9.97-4.69-2.69,0-5.06.7-7.11,2.09s-3.63,3.46-4.74,6.18-1.67,5.9-1.67,9.54.55,6.74,1.64,9.44,2.66,4.75,4.69,6.18c2.03,1.43,4.43,2.14,7.19,2.14,4.17,0,7.49-1.57,9.97-4.72s3.71-7.49,3.71-13.04Z"/><path d="M566.01,149.84h-13.72v20.94c0,2.99-.71,5.26-2.12,6.81-1.41,1.55-3.2,2.32-5.35,2.32s-4.07-.77-5.45-2.3-2.07-3.78-2.07-6.74v-57.02c0-3.3.76-5.65,2.27-7.06,1.51-1.41,3.92-2.12,7.22-2.12h19.22c5.68,0,10.06.44,13.12,1.31,3.03.84,5.64,2.24,7.85,4.19,2.2,1.95,3.88,4.34,5.02,7.17,1.14,2.83,1.72,6,1.72,9.54,0,7.54-2.32,13.25-6.96,17.13-4.64,3.89-11.56,5.83-20.74,5.83ZM562.38,115.93h-10.09v22.6h10.09c3.53,0,6.48-.37,8.86-1.11,2.37-.74,4.18-1.95,5.42-3.63,1.24-1.68,1.87-3.88,1.87-6.61,0-3.26-.96-5.92-2.88-7.97-2.15-2.19-6.58-3.28-13.27-3.28Z"/><path d="M605.27,171.53v-59.74c0-2.76.61-4.84,1.84-6.26,1.23-1.41,2.88-2.12,4.97-2.12s3.77.7,5.04,2.09c1.28,1.4,1.92,3.49,1.92,6.28v59.74c0,2.79-.65,4.89-1.94,6.28-1.3,1.4-2.97,2.09-5.02,2.09s-3.66-.72-4.92-2.17-1.89-3.51-1.89-6.21Z"/><path d="M668.09,172.14c-3.33,2.59-6.55,4.53-9.66,5.83-3.11,1.29-6.6,1.94-10.47,1.94-3.53,0-6.64-.7-9.31-2.09s-4.74-3.29-6.18-5.68c-1.45-2.39-2.17-4.98-2.17-7.77,0-3.77,1.19-6.98,3.58-9.64s5.67-4.44,9.84-5.35c.87-.2,3.04-.66,6.51-1.36,3.46-.71,6.43-1.35,8.91-1.94,2.47-.59,5.15-1.3,8.05-2.14-.17-3.63-.9-6.3-2.2-8-1.29-1.7-3.98-2.55-8.05-2.55-3.5,0-6.13.49-7.9,1.46-1.77.98-3.28,2.44-4.54,4.39-1.26,1.95-2.15,3.24-2.67,3.86-.52.62-1.64.93-3.36.93-1.55,0-2.88-.5-4.01-1.49-1.13-.99-1.69-2.26-1.69-3.81,0-2.42.86-4.78,2.57-7.06,1.71-2.29,4.39-4.17,8.02-5.65,3.63-1.48,8.16-2.22,13.57-2.22,6.05,0,10.81.71,14.28,2.14s5.91,3.69,7.34,6.79c1.43,3.1,2.14,7.2,2.14,12.31,0,3.23,0,5.97-.03,8.22-.02,2.25-.04,4.76-.08,7.52,0,2.59.43,5.29,1.29,8.1.86,2.81,1.29,4.62,1.29,5.42,0,1.41-.67,2.7-1.99,3.86-1.33,1.16-2.83,1.74-4.52,1.74-1.41,0-2.81-.67-4.19-1.99-1.38-1.33-2.84-3.25-4.39-5.78ZM667.18,152.21c-2.02.74-4.95,1.52-8.8,2.35-3.85.83-6.52,1.43-8,1.82-1.48.39-2.89,1.14-4.24,2.27-1.35,1.13-2.02,2.7-2.02,4.72s.79,3.86,2.37,5.32c1.58,1.46,3.65,2.2,6.21,2.2,2.72,0,5.24-.6,7.54-1.79s3.99-2.73,5.07-4.62c1.24-2.08,1.87-5.52,1.87-10.29v-1.97Z"/><path d="M707.19,131.52v1.67c2.42-3.2,5.07-5.54,7.95-7.04s6.18-2.25,9.92-2.25,6.88.79,9.74,2.37c2.86,1.58,5,3.82,6.41,6.71.91,1.68,1.5,3.5,1.77,5.45.27,1.95.4,4.44.4,7.47v25.63c0,2.76-.63,4.84-1.89,6.26-1.26,1.41-2.9,2.12-4.92,2.12s-3.72-.72-5-2.17-1.92-3.51-1.92-6.21v-22.96c0-4.54-.63-8.01-1.89-10.42-1.26-2.41-3.78-3.61-7.54-3.61-2.46,0-4.69.73-6.71,2.2s-3.5,3.47-4.44,6.03c-.67,2.05-1.01,5.89-1.01,11.5v17.26c0,2.79-.65,4.89-1.94,6.28s-2.97,2.09-5.02,2.09-3.62-.72-4.89-2.17-1.92-3.51-1.92-6.21v-39.81c0-2.62.57-4.58,1.72-5.88,1.14-1.29,2.71-1.94,4.69-1.94,1.21,0,2.3.29,3.28.86s1.76,1.43,2.35,2.57c.59,1.14.88,2.54.88,4.19Z"/><path d="M769.61,131.52v1.67c2.42-3.2,5.07-5.54,7.95-7.04s6.18-2.25,9.92-2.25,6.88.79,9.74,2.37c2.86,1.58,5,3.82,6.41,6.71.91,1.68,1.5,3.5,1.77,5.45.27,1.95.4,4.44.4,7.47v25.63c0,2.76-.63,4.84-1.89,6.26-1.26,1.41-2.9,2.12-4.92,2.12s-3.72-.72-5-2.17-1.92-3.51-1.92-6.21v-22.96c0-4.54-.63-8.01-1.89-10.42-1.26-2.41-3.78-3.61-7.54-3.61-2.46,0-4.69.73-6.71,2.2s-3.5,3.47-4.44,6.03c-.67,2.05-1.01,5.89-1.01,11.5v17.26c0,2.79-.65,4.89-1.94,6.28s-2.97,2.09-5.02,2.09-3.62-.72-4.89-2.17-1.92-3.51-1.92-6.21v-39.81c0-2.62.57-4.58,1.72-5.88,1.14-1.29,2.71-1.94,4.69-1.94,1.21,0,2.3.29,3.28.86s1.76,1.43,2.35,2.57c.59,1.14.88,2.54.88,4.19Z"/><path d="M857.96,155.29h-26.94c.03,3.13.66,5.89,1.89,8.28,1.23,2.39,2.86,4.19,4.89,5.4s4.28,1.82,6.74,1.82c1.65,0,3.15-.19,4.52-.58,1.36-.39,2.68-.99,3.96-1.82,1.28-.82,2.46-1.71,3.53-2.65,1.08-.94,2.47-2.22,4.19-3.83.71-.61,1.72-.91,3.03-.91,1.41,0,2.56.39,3.43,1.16.88.77,1.31,1.87,1.31,3.28,0,1.25-.49,2.7-1.46,4.36s-2.45,3.26-4.42,4.79-4.44,2.8-7.42,3.81c-2.98,1.01-6.4,1.51-10.27,1.51-8.85,0-15.73-2.52-20.64-7.57-4.91-5.04-7.37-11.89-7.37-20.54,0-4.07.61-7.85,1.82-11.33,1.21-3.48,2.98-6.47,5.3-8.96,2.32-2.49,5.18-4.4,8.58-5.73,3.4-1.33,7.17-1.99,11.3-1.99,5.38,0,10,1.13,13.85,3.41,3.85,2.27,6.74,5.21,8.65,8.8,1.92,3.6,2.88,7.27,2.88,11,0,3.46-.99,5.71-2.98,6.74-1.99,1.03-4.78,1.54-8.38,1.54ZM831.02,147.47h24.98c-.34-4.71-1.61-8.23-3.81-10.57-2.2-2.34-5.11-3.51-8.7-3.51s-6.25,1.19-8.45,3.56c-2.2,2.37-3.54,5.88-4.01,10.52Z"/><path d="M894.6,160.03v11.5c0,2.79-.66,4.89-1.97,6.28-1.31,1.4-2.98,2.09-5,2.09s-3.62-.71-4.89-2.12c-1.28-1.41-1.92-3.5-1.92-6.26v-38.35c0-6.19,2.24-9.28,6.71-9.28,2.29,0,3.94.72,4.94,2.17,1.01,1.45,1.56,3.58,1.67,6.41,1.65-2.83,3.34-4.96,5.07-6.41s4.04-2.17,6.94-2.17,5.7.72,8.43,2.17c2.73,1.45,4.09,3.36,4.09,5.75,0,1.68-.58,3.07-1.74,4.16-1.16,1.09-2.41,1.64-3.76,1.64-.5,0-1.72-.31-3.66-.93-1.93-.62-3.64-.93-5.12-.93-2.02,0-3.67.53-4.94,1.59-1.28,1.06-2.27,2.63-2.98,4.72-.71,2.09-1.19,4.57-1.46,7.44-.27,2.88-.4,6.38-.4,10.52Z"/><path class="cls-1" d="M200.71,130.54c-1.1-2.05-2.48-3.95-3.98-5.69-4.89-5.63-11.25-9.94-18.23-12.55-3.55-1.33-7.26-2.22-11.03-2.63s-6.88.36-10.62,1.21c-5.14,1.17-10.02,3.25-14.87,5.32-9.46,4.04-15.43,13.28-18.13,22.89-2.36,8.38-2.87,16.8.64,24.98,1.99,4.61,5.06,8.75,8.88,12.01,3.94,3.37,8.55,6.79,13.79,7.6,7.18,1.1,14.6-.37,21.23-3.17,8.06-3.41,15.21-8.65,22.1-13.97,5.8-4.48,10.87-11.17,11.61-18.67.41-4.16,1.59-8.21.56-12.36-.43-1.73-1.1-3.39-1.94-4.97ZM183.56,137.42l-25.04,25.04c-.83.83-1.91,1.24-2.99,1.24s-2.16-.41-2.99-1.24l-12.54-12.54c-1.65-1.65-1.65-4.33,0-5.98,1.65-1.65,4.33-1.65,5.98,0l9.55,9.55,22.05-22.05c1.65-1.65,4.33-1.65,5.98,0,1.65,1.65,1.65,4.33,0,5.98Z"/></svg>